<svg width="16" height="16" viewBox="0 0 16 16" fill="none" xmlns="http://www.w3.org/2000/svg">
<path fill-rule="evenodd" clip-rule="evenodd" d="M4.17861 1.1457C4.09075 1.23376 4.03408 1.45041 4.03408 1.69837V2.10633L3.22908 2.10836C2.0558 2.11131 1.47896 2.42191 1.14049 3.23304C1.01777 3.52697 0.998355 4.26644 1.0001 8.57421C1.00194 13.2384 1.01354 13.599 1.17196 13.9426C1.37749 14.3886 1.66876 14.6692 2.12342 14.8593C2.41837 14.9828 3.20939 15.0016 8.01013 14.9999C13.2053 14.998 13.5793 14.9871 13.9241 14.8278C14.3694 14.6221 14.6498 14.3304 14.8396 13.8752C15.0535 13.3629 15.0535 3.74536 14.8396 3.23304C14.5012 2.42191 13.9243 2.11131 12.7511 2.10836L11.9461 2.10633V1.70611C11.9461 1.43539 11.8916 1.25661 11.7778 1.15344C11.398 0.809313 11.0261 1.07901 11.0261 1.69837V2.10633H7.99007H4.95407V1.70611C4.95407 1.10739 4.526 0.797983 4.17861 1.1457ZM14.0621 9.69299V13.5951L13.8195 13.838L13.5769 14.0808H7.99007H2.40319L2.16059 13.838L1.91808 13.5951V9.69299V5.79079H7.99007H14.0621V9.69299Z" fill="white"/>
</svg>
