<svg width="16" height="16" viewBox="0 0 16 16" fill="none" xmlns="http://www.w3.org/2000/svg">
<path fill-rule="evenodd" clip-rule="evenodd" d="M3.07549 1.59194C2.71472 1.91748 2.08361 2.6303 1.67279 3.17602C1.01175 4.05446 0.938485 4.23397 1.03416 4.74343C1.80755 8.8609 6.84449 14.0247 10.9435 14.9028C11.7181 15.0686 11.8006 15.0526 12.4353 14.6136C13.3603 13.9739 14.6607 12.79 14.8725 12.3948C15.0113 12.1357 14.9846 12.0047 14.7452 11.7677C14.296 11.3228 11.7338 9.82036 11.4242 9.82036C11.277 9.82036 10.8689 10.1144 10.5177 10.4737C10.1664 10.8331 9.81573 11.1271 9.73837 11.1271C9.66118 11.1271 9.20702 10.9423 8.72915 10.7166C7.16896 9.97945 5.73796 8.46856 5.10603 6.89118L4.83047 6.20336L5.5072 5.51472C5.87926 5.13593 6.18378 4.71746 6.18378 4.58466C6.18378 4.07651 4.21195 1 3.88634 1C3.80129 1 3.43643 1.26641 3.07549 1.59194ZM8.47337 1.46748C8.47337 1.90278 8.5347 1.94721 9.36402 2.11365C11.7913 2.60041 13.5674 4.42998 13.9519 6.83941C14.0528 7.47186 14.105 7.5336 14.5388 7.5336C15.0805 7.5336 15.0978 7.45471 14.8337 6.19405C14.3105 3.69642 12.3266 1.71592 9.81458 1.18359C8.5576 0.91735 8.47337 0.935154 8.47337 1.46748ZM8.47337 4.01869C8.47337 4.52961 8.52096 4.59348 8.90087 4.59348C9.97502 4.59348 11.4171 6.02924 11.4171 7.09879C11.4171 7.473 11.4855 7.5336 11.9078 7.5336C12.3529 7.5336 12.3981 7.48444 12.3948 7.00275C12.3866 5.79926 11.1331 4.17892 9.92579 3.81125C8.51622 3.38182 8.47337 3.38803 8.47337 4.01869Z" fill="white"/>
</svg>
