<svg width="16" height="16" viewBox="0 0 16 16" fill="none" xmlns="http://www.w3.org/2000/svg">
<path d="M12.1607 10.5804C12.1607 11.4911 11.8646 12.2753 11.2723 12.933C10.6801 13.5908 9.91071 13.997 8.96429 14.1518V15.7143C8.96429 15.7976 8.9375 15.8661 8.88393 15.9196C8.83036 15.9732 8.7619 16 8.67857 16H7.47321C7.39583 16 7.32887 15.9717 7.27232 15.9152C7.21577 15.8586 7.1875 15.7917 7.1875 15.7143V14.1518C6.79464 14.0982 6.41518 14.006 6.04911 13.875C5.68304 13.744 5.38095 13.6116 5.14286 13.4777C4.90476 13.3438 4.68452 13.2009 4.48214 13.0491C4.27976 12.8973 4.14137 12.7857 4.06696 12.7143C3.99256 12.6429 3.94048 12.5893 3.91071 12.5536C3.80952 12.4286 3.80357 12.3065 3.89286 12.1875L4.8125 10.9821C4.85417 10.9226 4.92262 10.8869 5.01786 10.875C5.10714 10.8631 5.17857 10.8899 5.23214 10.9554L5.25 10.9732C5.92262 11.5625 6.64583 11.9345 7.41964 12.0893C7.63988 12.1369 7.86012 12.1607 8.08036 12.1607C8.5625 12.1607 8.98661 12.0327 9.35268 11.7768C9.71875 11.5208 9.90179 11.1577 9.90179 10.6875C9.90179 10.5208 9.85714 10.3631 9.76786 10.2143C9.67857 10.0655 9.57887 9.94048 9.46875 9.83929C9.35863 9.7381 9.18452 9.62649 8.94643 9.50447C8.70833 9.38244 8.5119 9.2872 8.35714 9.21875C8.20238 9.1503 7.96429 9.05357 7.64286 8.92857C7.41071 8.83333 7.22768 8.75893 7.09375 8.70536C6.95982 8.65179 6.77679 8.57292 6.54464 8.46875C6.3125 8.36458 6.12649 8.27232 5.98661 8.19197C5.84673 8.11161 5.67857 8.00595 5.48214 7.875C5.28571 7.74405 5.12649 7.61756 5.00446 7.49554C4.88244 7.37351 4.75298 7.22768 4.61607 7.05804C4.47917 6.88839 4.37351 6.71577 4.29911 6.54018C4.2247 6.36458 4.1622 6.16667 4.11161 5.94643C4.06101 5.72619 4.03571 5.49405 4.03571 5.25C4.03571 4.42857 4.32738 3.70833 4.91071 3.08929C5.49405 2.47024 6.25298 2.07143 7.1875 1.89286V0.285714C7.1875 0.208333 7.21577 0.141369 7.27232 0.0848214C7.32887 0.0282738 7.39583 0 7.47321 0H8.67857C8.7619 0 8.83036 0.0267857 8.88393 0.0803571C8.9375 0.133929 8.96429 0.202381 8.96429 0.285714V1.85714C9.30357 1.89286 9.63244 1.96131 9.95089 2.0625C10.2693 2.16369 10.5283 2.26339 10.7277 2.36161C10.9271 2.45982 11.1161 2.57143 11.2946 2.69643C11.4732 2.82143 11.5893 2.90774 11.6429 2.95536C11.6964 3.00298 11.7411 3.04464 11.7768 3.08036C11.878 3.1875 11.8929 3.3006 11.8214 3.41964L11.0982 4.72321C11.0506 4.8125 10.9821 4.86012 10.8929 4.86607C10.8095 4.88393 10.7292 4.8631 10.6518 4.80357C10.6339 4.78571 10.5908 4.75 10.5223 4.69643C10.4539 4.64286 10.3378 4.56399 10.1741 4.45982C10.0104 4.35565 9.83631 4.26042 9.65179 4.17411C9.46726 4.0878 9.24554 4.01042 8.98661 3.94196C8.72768 3.87351 8.47321 3.83929 8.22321 3.83929C7.65774 3.83929 7.19643 3.96726 6.83929 4.22321C6.48214 4.47917 6.30357 4.80952 6.30357 5.21429C6.30357 5.36905 6.32887 5.51191 6.37946 5.64286C6.43006 5.77381 6.51786 5.89732 6.64286 6.01339C6.76786 6.12946 6.88542 6.22768 6.99554 6.30804C7.10565 6.38839 7.27232 6.48066 7.49554 6.58482C7.71875 6.68899 7.89881 6.76935 8.03571 6.82589C8.17262 6.88244 8.38095 6.96429 8.66071 7.07143C8.97619 7.19048 9.21726 7.28423 9.38393 7.35268C9.55059 7.42113 9.77679 7.5253 10.0625 7.66518C10.3482 7.80506 10.5729 7.93155 10.7366 8.04464C10.9003 8.15774 11.0848 8.30655 11.2902 8.49107C11.4955 8.6756 11.6533 8.86458 11.7634 9.05804C11.8735 9.25149 11.9673 9.47917 12.0446 9.74107C12.122 10.003 12.1607 10.2827 12.1607 10.5804Z" fill="white"/>
</svg>
