<svg width="20" height="20" viewBox="0 0 20 20" fill="none" xmlns="http://www.w3.org/2000/svg">
<path d="M16.231 4.18903C15.8542 3.81207 15.4068 3.51304 14.9145 3.30902C14.4221 3.10501 13.8943 3 13.3614 3C12.8284 3 12.3006 3.10501 11.8083 3.30902C11.3159 3.51304 10.8685 3.81207 10.4918 4.18903L9.7098 4.97098L8.92785 4.18903C8.16678 3.42796 7.13455 3.00039 6.05824 3.00039C4.98193 3.00039 3.9497 3.42796 3.18863 4.18903C2.42756 4.95009 2 5.98232 2 7.05864C2 8.13495 2.42756 9.16718 3.18863 9.92825L3.97058 10.7102L9.7098 16.4494L15.449 10.7102L16.231 9.92825C16.6079 9.55147 16.907 9.10411 17.111 8.61173C17.315 8.11936 17.42 7.59161 17.42 7.05864C17.42 6.52567 17.315 5.99792 17.111 5.50554C16.907 5.01316 16.6079 4.56581 16.231 4.18903V4.18903Z" fill="white"/>
</svg>
