<svg width="20" height="20" viewBox="0 0 20 20" fill="none" xmlns="http://www.w3.org/2000/svg">
<path d="M9.79063 7.33751C9.23595 7.33721 8.70151 7.54586 8.29375 7.92189C8.21155 7.85235 8.10767 7.81367 8 7.81251C7.66709 7.81532 7.33688 7.75268 7.02813 7.62814C7.46584 7.05748 7.73438 6.37529 7.80313 5.65939H8.00938C8.1337 5.65939 8.25293 5.61 8.34084 5.52209C8.42874 5.43419 8.47813 5.31496 8.47813 5.19064C8.47813 5.06632 8.42874 4.94709 8.34084 4.85918C8.25293 4.77127 8.1337 4.72189 8.00938 4.72189H6.66875V3.99376C6.66875 3.86944 6.61937 3.75021 6.53146 3.66231C6.44355 3.5744 6.32432 3.52501 6.2 3.52501C6.07568 3.52501 5.95646 3.5744 5.86855 3.66231C5.78064 3.75021 5.73125 3.86944 5.73125 3.99376V4.72501H4.4C4.27568 4.72501 4.15646 4.7744 4.06855 4.86231C3.98064 4.95021 3.93125 5.06944 3.93125 5.19376C3.93125 5.31808 3.98064 5.43731 4.06855 5.52522C4.15646 5.61313 4.27568 5.66251 4.4 5.66251H6.85C6.7865 6.18315 6.57867 6.67565 6.25 7.08439C6.01179 6.81569 5.82533 6.50527 5.7 6.16876C5.68294 6.10663 5.65326 6.04869 5.6128 5.99854C5.57234 5.9484 5.52199 5.90713 5.46487 5.87732C5.40775 5.84751 5.3451 5.8298 5.28083 5.82529C5.21656 5.82077 5.15204 5.82955 5.09132 5.85109C5.0306 5.87262 4.97496 5.90644 4.92789 5.95044C4.88083 5.99444 4.84333 6.04766 4.81775 6.1068C4.79218 6.16593 4.77907 6.2297 4.77924 6.29413C4.77941 6.35856 4.79286 6.42226 4.81875 6.48126C4.97235 6.89417 5.19535 7.27781 5.47813 7.61564C5.13685 7.74482 4.77425 7.80844 4.40938 7.80314C4.28506 7.80314 4.16583 7.85252 4.07792 7.94043C3.99001 8.02834 3.94063 8.14757 3.94063 8.27189C3.94063 8.39621 3.99001 8.51544 4.07792 8.60334C4.16583 8.69125 4.28506 8.74064 4.40938 8.74064C5.05217 8.76207 5.6886 8.60756 6.25 8.29376C6.69706 8.56142 7.20182 8.71788 7.72188 8.75001C7.61634 9.01116 7.56222 9.29022 7.5625 9.57189V9.92189H4.30313C4.23554 9.92169 4.16871 9.93611 4.10722 9.96416C4.04573 9.99221 3.99103 10.0332 3.94688 10.0844C3.90232 10.1356 3.86968 10.1961 3.8513 10.2615C3.83293 10.3269 3.82929 10.3956 3.84063 10.4625C3.84063 10.4938 3.9 10.8469 4.00625 11.3438C4.01828 11.4054 4.01146 11.4692 3.9867 11.5269C3.96194 11.5846 3.92037 11.6335 3.86742 11.6672C3.81447 11.7009 3.75259 11.7179 3.68984 11.716C3.62709 11.714 3.56638 11.6932 3.51563 11.6563C2.53125 10.9375 1.48125 10.0625 1.15313 9.44689C1.13934 9.42178 1.12367 9.39776 1.10625 9.37501C0.95515 9.15999 0.874365 8.90344 0.875004 8.64064V3.60001C0.875004 3.25772 1.01098 2.92944 1.25302 2.6874C1.49506 2.44536 1.82333 2.30939 2.16563 2.30939H10.2094C10.5517 2.30939 10.8799 2.44536 11.122 2.6874C11.364 2.92944 11.5 3.25772 11.5 3.60001V7.35001L9.79063 7.33751ZM19.125 9.56564V14.5938C19.1271 14.8568 19.0462 15.1138 18.8938 15.3281C18.8745 15.3541 18.8587 15.3824 18.8469 15.4125C18.5344 16.0375 17.4688 16.9031 16.4844 17.6281C16.4336 17.6651 16.3729 17.6859 16.3102 17.6878C16.2474 17.6898 16.1855 17.6728 16.1326 17.6391C16.0796 17.6053 16.0381 17.5564 16.0133 17.4988C15.9885 17.4411 15.9817 17.3773 15.9938 17.3156C16.1 16.8156 16.1563 16.4625 16.1594 16.4313C16.1703 16.3644 16.1665 16.296 16.1482 16.2307C16.13 16.1655 16.0977 16.105 16.0537 16.0536C16.0096 16.0021 15.9549 15.9608 15.8933 15.9327C15.8316 15.9046 15.7646 15.8902 15.6969 15.8906H9.79063C9.62061 15.8906 9.45227 15.8571 9.29528 15.7918C9.13829 15.7266 8.99573 15.6309 8.8758 15.5104C8.75587 15.3899 8.66094 15.2469 8.59645 15.0896C8.53196 14.9323 8.49918 14.7638 8.5 14.5938V9.56564C8.5 9.22334 8.63598 8.89507 8.87802 8.65303C9.12006 8.41099 9.44833 8.27501 9.79063 8.27501H17.8344C18.1767 8.27501 18.5049 8.41099 18.747 8.65303C18.989 8.89507 19.125 9.22334 19.125 9.56564V9.56564ZM15.8688 13.9406L15.3281 12.5938L14.2594 9.91876C14.2523 9.90047 14.244 9.88272 14.2344 9.86564L14.2156 9.83439L14.1875 9.79689L14.1594 9.76564L14.1281 9.73751L14.0875 9.70626L14.0625 9.68751L14.0125 9.65939C14.0021 9.65801 13.9916 9.65801 13.9813 9.65939L13.9313 9.64376H13.75L13.6969 9.65939C13.6865 9.65801 13.676 9.65801 13.6656 9.65939L13.6188 9.68751L13.5844 9.70314L13.5469 9.73439L13.5156 9.76251L13.4875 9.79376L13.4563 9.83126C13.4563 9.83126 13.4563 9.85314 13.4406 9.86251L13.4125 9.91564L12.3188 12.5938L11.7781 13.9438C11.7533 14.0019 11.7404 14.0645 11.7402 14.1277C11.74 14.1909 11.7525 14.2536 11.777 14.3119C11.8015 14.3702 11.8374 14.4229 11.8827 14.4671C11.928 14.5112 11.9817 14.5458 12.0406 14.5688C12.0963 14.591 12.1557 14.6026 12.2156 14.6031C12.3112 14.6012 12.4038 14.5702 12.4814 14.5144C12.559 14.4586 12.6178 14.3806 12.65 14.2906L13.0688 13.2438H14.5813L15 14.2906C15.0315 14.3811 15.0901 14.4596 15.1678 14.5155C15.2455 14.5714 15.3386 14.602 15.4344 14.6031C15.4933 14.6023 15.5515 14.5906 15.6063 14.5688C15.6654 14.5462 15.7194 14.5118 15.765 14.4677C15.8105 14.4236 15.8466 14.3708 15.8711 14.3124C15.8957 14.254 15.9081 14.1912 15.9077 14.1278C15.9073 14.0645 15.894 14.0019 15.8688 13.9438V13.9406ZM13.4375 12.3063H14.2L13.8188 11.3688L13.4375 12.3063Z" fill="white"/>
</svg>
