<svg width="16" height="16" viewBox="0 0 16 16" fill="none" xmlns="http://www.w3.org/2000/svg">
<path d="M8 1C5.23867 1 3 3.20342 3 5.92129C3 8.0883 6.179 12.8482 7.46733 14.6887C7.758 15.1038 8.242 15.1038 8.53267 14.6887C9.821 12.8478 13 8.08862 13 5.92129C13 3.20342 10.7613 1 8 1ZM8 3.2966C8.70724 3.2966 9.38552 3.57313 9.88562 4.06535C10.3857 4.55758 10.6667 5.22518 10.6667 5.92129C10.6667 6.26597 10.5977 6.60727 10.4637 6.92571C10.3297 7.24415 10.1332 7.5335 9.88562 7.77722C9.63799 8.02095 9.34402 8.21428 9.02049 8.34618C8.69695 8.47809 8.35019 8.54598 8 8.54598C7.29276 8.54598 6.61448 8.26945 6.11438 7.77722C5.61428 7.285 5.33333 6.6174 5.33333 5.92129C5.33333 5.22518 5.61428 4.55758 6.11438 4.06535C6.61448 3.57313 7.29276 3.2966 8 3.2966V3.2966Z" fill="white"/>
</svg>
