<svg version="1.2" xmlns="http://www.w3.org/2000/svg" viewBox="0 0 501 501" width="501" height="501">
	<title>sort-by-svg</title>
	<style>
		.s0 { fill: #000000 } 
	</style>
	<g id="Layer">
		<path id="Layer" class="s0" d="m342.3 203.9c7.7 0 14 6.3 14 14v203.1l81-78.4c5.5-5.4 14.4-5.2 19.8 0.3 5.3 5.6 5.2 14.4-0.4 19.8l-106 102.7c-5.6 5.4-14.4 5.2-19.8-0.3l-99.3-102.7c-5.4-5.6-5.2-14.4 0.3-19.8 5.6-5.4 14.5-5.2 19.8 0.3l76.6 79.2v-204.2c0-7.7 6.3-14 14-14zm-198.1-169c5.4-5.5 14.3-5.7 19.8-0.3l106.1 102.7c5.5 5.3 5.7 14.2 0.3 19.8-5.4 5.5-14.3 5.7-19.8 0.3l-81-78.4v203c0 7.8-6.2 14-14 14-7.3 0-13.2-5.5-13.9-12.6l-0.1-1.4v-204.1l-76.5 79.2c-5.1 5.2-13.2 5.6-18.8 1.2l-1-0.9c-5.6-5.4-5.7-14.3-0.4-19.8z"/>
		<g id="o">
			<path id="Layer" class="s0" d="m2.3 668.1q-2.5 1.3-5.1 1.9-2.6 0.7-5.4 0.7-8.5 0-13.5-4.8-5-4.7-5-12.9 0-8.1 5-12.9 5-4.7 13.5-4.7 2.8 0 5.4 0.6 2.6 0.6 5.1 1.9v7q-2.5-1.6-4.8-2.4-2.4-0.8-5-0.8-4.7 0-7.4 3-2.7 3-2.7 8.3 0 5.3 2.7 8.3 2.7 3 7.4 3 2.6 0 5-0.8 2.3-0.7 4.8-2.4z"/>
		</g>
		<g id="i">
			<path id="Layer" class="s0" d="m28.1 651.4q-1-0.5-2.1-0.7-1.1-0.2-2.1-0.2-3.2 0-4.9 2-1.7 2-1.7 5.7v11.8h-8.1v-25.5h8.1v4.2q1.6-2.5 3.6-3.7 2.1-1.1 4.9-1.1 0.4 0 0.9 0 0.5 0 1.4 0.1z"/>
		</g>
		<g id="a">
			<path id="Layer" fill-rule="evenodd" class="s0" d="m57.7 657.2v2.3h-19.1q0.3 2.9 2.1 4.3 1.7 1.4 4.9 1.4 2.6 0 5.3-0.7 2.7-0.8 5.6-2.3v6.3q-2.9 1-5.8 1.6-2.9 0.6-5.8 0.6-7 0-10.8-3.6-3.8-3.5-3.8-9.8 0-6.3 3.7-9.9 3.8-3.5 10.4-3.5 6 0 9.6 3.6 3.7 3.6 3.7 9.7zm-8.4-2.7q0-2.4-1.4-3.8-1.3-1.4-3.5-1.4-2.4 0-3.9 1.3-1.5 1.4-1.8 3.9z"/>
		</g>
		<g id="h">
			<path id="Layer" fill-rule="evenodd" class="s0" d="m87.7 655.4v14.6h-8.2v-3.8q-1.6 2.3-3.7 3.4-2 1.1-5 1.1-3.9 0-6.4-2.4-2.5-2.3-2.5-6 0-4.4 3.1-6.5 3.1-2.1 9.7-2.1h4.8v-0.7q0-1.9-1.5-2.8-1.5-0.9-4.8-0.9-2.6 0-4.9 0.5-2.2 0.5-4.2 1.6v-6.2q2.7-0.7 5.3-1 2.7-0.3 5.3-0.3 6.9 0 10 2.7 3 2.7 3 8.8zm-12.4 3.1q-2.6 0-3.9 0.9-1.3 0.9-1.3 2.5 0 1.6 1.1 2.5 1 0.8 2.9 0.8 2.3 0 3.8-1.6 1.6-1.7 1.6-4.1v-1z"/>
		</g>
		<g id="g">
			<path id="Layer" class="s0" d="m104.2 637.2v7.3h8.4v5.8h-8.4v10.8q0 1.8 0.7 2.4 0.7 0.7 2.8 0.7h4.2v5.8h-7q-4.8 0-6.8-2-2-2-2-6.9v-10.8h-4.1v-5.8h4.1v-7.3z"/>
		</g>
		<g id="a">
			<path id="Layer" fill-rule="evenodd" class="s0" d="m143.1 657.2v2.3h-19.1q0.3 2.9 2.1 4.3 1.8 1.4 5 1.4 2.5 0 5.3-0.7 2.7-0.8 5.5-2.3v6.3q-2.9 1-5.8 1.6-2.9 0.6-5.8 0.6-6.9 0-10.7-3.6-3.9-3.5-3.9-9.8 0-6.3 3.8-9.9 3.8-3.5 10.4-3.5 6 0 9.6 3.6 3.6 3.6 3.6 9.7zm-8.4-2.7q0-2.4-1.3-3.8-1.4-1.4-3.6-1.4-2.4 0-3.8 1.3-1.5 1.4-1.9 3.9z"/>
		</g>
		<g id="f">
			<path id="Layer" fill-rule="evenodd" class="s0" d="m166.6 648.2v-13.7h8.2v35.5h-8.2v-3.7q-1.6 2.3-3.7 3.3-2 1.1-4.7 1.1-4.7 0-7.7-3.8-3-3.7-3-9.6 0-5.9 3-9.7 3-3.7 7.7-3.7 2.7 0 4.7 1 2.1 1.1 3.7 3.3zm-5.3 16.5q2.6 0 4-1.9 1.3-1.9 1.3-5.5 0-3.7-1.3-5.6-1.4-1.9-4-1.9-2.6 0-4 1.9-1.4 1.9-1.4 5.6 0 3.6 1.4 5.5 1.4 1.9 4 1.9z"/>
		</g>
		<g id="b">
			<path id="Layer" fill-rule="evenodd" class="s0" d="m207.1 648.2q1.7-2.2 3.7-3.3 2.1-1 4.7-1 4.8 0 7.8 3.7 3 3.8 3 9.7 0 5.9-3 9.6-3 3.8-7.8 3.8-2.6 0-4.7-1.1-2-1.1-3.7-3.3v3.7h-8.2v-35.5h8.2zm5.4 16.6q2.6 0 4-1.9 1.4-2 1.4-5.6 0-3.7-1.4-5.6-1.4-1.9-4-1.9-2.6 0-4 1.9-1.4 2-1.4 5.6 0 3.6 1.4 5.5 1.4 2 4 2z"/>
		</g>
		<g id="e">
			<path id="Layer" class="s0" d="m229 644.5h8.2l6.8 17.3 5.8-17.3h8.2l-10.7 27.9q-1.6 4.3-3.8 6-2.2 1.7-5.7 1.7h-4.7v-5.4h2.5q2.1 0 3.1-0.7 0.9-0.6 1.4-2.3l0.3-0.7z"/>
		</g>
		<g id="d">
			<path id="Layer" fill-rule="evenodd" class="s0" d="m288.1 657.1v12.9h-8.7v-34h13.4q6.7 0 9.8 2.2 3.2 2.3 3.2 7.2 0 3.3-1.7 5.5-1.6 2.2-4.9 3.2 1.8 0.4 3.2 1.9 1.5 1.4 2.9 4.3l4.8 9.7h-9.4l-4.1-8.5q-1.3-2.5-2.5-3.4-1.3-1-3.5-1zm3.7-6q2.8 0 4-1.1 1.2-1 1.2-3.3 0-2.4-1.2-3.4-1.2-1-4-1h-3.7v8.8z"/>
		</g>
		<g id="c">
			<path id="Layer" fill-rule="evenodd" class="s0" d="m327.1 643.9q6.6 0 10.3 3.5 3.7 3.6 3.7 9.9 0 6.2-3.7 9.8-3.7 3.6-10.3 3.6-6.6 0-10.4-3.6-3.7-3.6-3.7-9.8 0-6.3 3.7-9.9 3.8-3.5 10.4-3.5zm0 5.8q-2.7 0-4.2 1.9-1.4 2-1.4 5.7 0 3.6 1.4 5.6 1.5 1.9 4.2 1.9 2.7 0 4.1-1.9 1.4-2 1.4-5.6 0-3.7-1.4-5.7-1.4-1.9-4.1-1.9z"/>
		</g>
		<g id="n">
			<path id="Layer" class="s0" d="m367.6 645.3v6.6q-1.6-1.1-3.3-1.7-1.7-0.5-3.5-0.5-3.4 0-5.3 2-1.9 2-1.9 5.6 0 3.5 1.9 5.5 1.9 2 5.3 2 1.9 0 3.6-0.5 1.8-0.6 3.2-1.7v6.6q-1.9 0.8-3.9 1.1-1.9 0.4-3.9 0.4-6.9 0-10.8-3.6-3.9-3.5-3.9-9.8 0-6.3 3.9-9.9 3.9-3.5 10.8-3.5 2 0 3.9 0.3 2 0.4 3.9 1.1z"/>
		</g>
		<g id="m">
			<path id="Layer" class="s0" d="m374.7 634.5h8.1v19.3l9.4-9.3h9.5l-12.5 11.7 13.5 13.8h-9.9l-10-10.6v10.6h-8.1z"/>
		</g>
		<g id="l">
			<path id="Layer" class="s0" d="m420.6 636h28.6v5.3l-18.2 22.1h18.8v6.6h-29.7v-5.3l18.3-22.1h-17.8z"/>
		</g>
		<g id="c">
			<path id="Layer" fill-rule="evenodd" class="s0" d="m467.9 643.9q6.6 0 10.3 3.5 3.7 3.6 3.7 9.9 0 6.2-3.7 9.8-3.7 3.6-10.3 3.6-6.6 0-10.3-3.6-3.7-3.6-3.7-9.8 0-6.3 3.7-9.9 3.7-3.5 10.3-3.5zm0 5.8q-2.7 0-4.1 1.9-1.4 2-1.4 5.7 0 3.6 1.4 5.6 1.4 1.9 4.1 1.9 2.7 0 4.1-1.9 1.4-2 1.4-5.6 0-3.7-1.4-5.7-1.4-1.9-4.1-1.9z"/>
		</g>
		<g id="k">
			<path id="Layer" class="s0" d="m511.5 648.7q1.5-2.4 3.7-3.6 2.1-1.2 4.7-1.2 4.4 0 6.7 2.7 2.3 2.7 2.3 7.9v15.5h-8.2v-13.3q0-0.3 0-0.6 0-0.3 0-0.9 0-2.7-0.8-4-0.8-1.2-2.6-1.2-2.3 0-3.6 1.9-1.2 1.9-1.3 5.6v12.5h-8.2v-13.3q0-4.2-0.7-5.5-0.7-1.2-2.6-1.2-2.4 0-3.6 1.9-1.3 2-1.3 5.5v12.6h-8.2v-25.5h8.2v3.7q1.5-2.1 3.5-3.2 1.9-1.1 4.2-1.1 2.7 0 4.7 1.2 2.1 1.3 3.1 3.6z"/>
		</g>
		<g id="b">
			<path id="Layer" fill-rule="evenodd" class="s0" d="m544.6 648.2q1.7-2.2 3.8-3.3 2-1 4.7-1 4.7 0 7.7 3.7 3.1 3.8 3.1 9.7 0 5.9-3.1 9.6-3 3.8-7.7 3.8-2.7 0-4.7-1.1-2.1-1.1-3.8-3.3v3.7h-8.1v-35.5h8.1zm5.5 16.6q2.6 0 4-1.9 1.3-2 1.3-5.6 0-3.7-1.3-5.6-1.4-1.9-4-1.9-2.7 0-4.1 1.9-1.4 2-1.4 5.6 0 3.6 1.4 5.5 1.4 2 4.1 2z"/>
		</g>
		<g id="j">
			<path id="Layer" class="s0" d="m569.9 644.5h8.1v25.5h-8.1zm0-9.9h8.1v6.6h-8.1z"/>
		</g>
		<g id="a">
			<path id="Layer" fill-rule="evenodd" class="s0" d="m611.3 657.2v2.3h-19q0.3 2.9 2 4.3 1.8 1.4 5 1.4 2.6 0 5.3-0.7 2.7-0.8 5.5-2.3v6.3q-2.9 1-5.8 1.6-2.9 0.6-5.7 0.6-7 0-10.8-3.6-3.9-3.5-3.9-9.8 0-6.3 3.8-9.9 3.8-3.5 10.4-3.5 6 0 9.6 3.6 3.6 3.6 3.6 9.7zm-8.3-2.7q0-2.4-1.4-3.8-1.4-1.4-3.5-1.4-2.4 0-3.9 1.3-1.5 1.4-1.8 3.9z"/>
		</g>
	</g>
</svg>