<svg width="20" height="20" viewBox="0 0 20 20" fill="none" xmlns="http://www.w3.org/2000/svg">
<path fill-rule="evenodd" clip-rule="evenodd" d="M8.7334 15.3334C8.7334 15.002 9.00203 14.7334 9.3334 14.7334H16.6667C16.9981 14.7334 17.2667 15.002 17.2667 15.3334C17.2667 15.6647 16.9981 15.9334 16.6667 15.9334H9.3334C9.00203 15.9334 8.7334 15.6647 8.7334 15.3334Z" fill="black"/>
<path fill-rule="evenodd" clip-rule="evenodd" d="M8.7334 10C8.7334 9.66865 9.00203 9.40002 9.3334 9.40002H16.6667C16.9981 9.40002 17.2667 9.66865 17.2667 10C17.2667 10.3314 16.9981 10.6 16.6667 10.6H9.3334C9.00203 10.6 8.7334 10.3314 8.7334 10Z" fill="black"/>
<path fill-rule="evenodd" clip-rule="evenodd" d="M8.7334 4.66668C8.7334 4.33531 9.00203 4.06668 9.3334 4.06668H16.6667C16.9981 4.06668 17.2667 4.33531 17.2667 4.66668C17.2667 4.99805 16.9981 5.26668 16.6667 5.26668H9.3334C9.00203 5.26668 8.7334 4.99805 8.7334 4.66668Z" fill="black"/>
<path fill-rule="evenodd" clip-rule="evenodd" d="M4.24214 2.9091C4.47646 2.67479 4.85636 2.67479 5.09067 2.9091L7.09067 4.9091C7.32498 5.14342 7.32498 5.52332 7.09067 5.75763C6.85636 5.99195 6.47646 5.99195 6.24214 5.75763L4.66641 4.1819L3.09067 5.75763C2.85636 5.99195 2.47646 5.99195 2.24214 5.75763C2.00783 5.52332 2.00783 5.14342 2.24214 4.9091L4.24214 2.9091Z" fill="black"/>
<path fill-rule="evenodd" clip-rule="evenodd" d="M2.24221 14.2417C2.47657 14.0074 2.85647 14.0075 3.09074 14.2418L4.66641 15.818L6.24207 14.2418C6.47635 14.0075 6.85625 14.0074 7.0906 14.2417C7.32495 14.476 7.32502 14.8559 7.09074 15.0902L5.09074 17.0909C4.97821 17.2035 4.82557 17.2667 4.66641 17.2667C4.50724 17.2667 4.3546 17.2035 4.24207 17.0909L2.24207 15.0902C2.0078 14.8559 2.00786 14.476 2.24221 14.2417Z" fill="black"/>
<path fill-rule="evenodd" clip-rule="evenodd" d="M4.66641 2.73337C4.99778 2.73337 5.26641 3.002 5.26641 3.33337V16.6667C5.26641 16.9981 4.99778 17.2667 4.66641 17.2667C4.33504 17.2667 4.06641 16.9981 4.06641 16.6667V3.33337C4.06641 3.002 4.33504 2.73337 4.66641 2.73337Z" fill="black"/>
</svg>
